<svg width="38" height="38" viewBox="0 0 38 38" fill="none" xmlns="http://www.w3.org/2000/svg">
<mask id="path-1-inside-1_67_146" fill="white">
<path d="M0 0H38V38H5C2.23858 38 0 35.7614 0 33V0Z"/>
</mask>
<path d="M0 0H38V38H5C2.23858 38 0 35.7614 0 33V0Z" fill="#112639"/>
<path d="M0 0H38H0ZM38 39H5C1.68629 39 -1 36.3137 -1 33H1C1 35.2091 2.79086 37 5 37H38V39ZM5 39C1.68629 39 -1 36.3137 -1 33V0H1V33C1 35.2091 2.79086 37 5 37V39ZM38 0V38V0Z" fill="white" mask="url(#path-1-inside-1_67_146)"/>
<path d="M14.1143 29.3143C13.5171 29.3143 13.0061 29.1018 12.5813 28.677C12.1557 28.2514 11.9429 27.74 11.9429 27.1429V13.0286H10.8571V10.8571H16.2857V9.77142H22.8V10.8571H28.2286V13.0286H27.1429V27.1429C27.1429 27.74 26.9304 28.2514 26.5055 28.677C26.0799 29.1018 25.5686 29.3143 24.9714 29.3143H14.1143ZM24.9714 13.0286H14.1143V27.1429H24.9714V13.0286ZM16.2857 24.9714H18.4571V15.2H16.2857V24.9714ZM20.6286 24.9714H22.8V15.2H20.6286V24.9714ZM14.1143 13.0286V27.1429V13.0286Z" fill="#F8F8F8"/>
</svg>
