<svg width="157" height="38" viewBox="0 0 157 38" fill="none" xmlns="http://www.w3.org/2000/svg">
<path d="M0.321875 0.999998H16.9219V5.88H5.80188V12.4H15.9219V17.28H5.80188V24.12H17.1219V29H0.321875V0.999998ZM33.3403 29V17.64C33.3403 16.0133 33.1003 14.84 32.6203 14.12C32.167 13.4 31.3803 13.04 30.2603 13.04C29.2736 13.04 28.4336 13.3333 27.7403 13.92C27.0736 14.48 26.5936 15.1867 26.3003 16.04V29H21.1003V9H25.2203L25.8203 11.64H25.9803C26.5936 10.7867 27.407 10.04 28.4203 9.4C29.4336 8.76 30.7403 8.44 32.3403 8.44C33.327 8.44 34.207 8.57333 34.9803 8.84C35.7536 9.10667 36.407 9.54667 36.9403 10.16C37.4736 10.7733 37.8736 11.6133 38.1403 12.68C38.407 13.72 38.5403 15.0133 38.5403 16.56V29H33.3403ZM59.8172 29C59.8172 31.9067 59.0305 34.04 57.4572 35.4C55.8839 36.7867 53.6839 37.48 50.8572 37.48C48.9372 37.48 47.4172 37.3467 46.2972 37.08C45.2039 36.8133 44.3772 36.5333 43.8172 36.24L44.8972 32.12C45.5105 32.36 46.2172 32.6 47.0172 32.84C47.8439 33.08 48.8572 33.2 50.0572 33.2C51.8705 33.2 53.0972 32.8 53.7372 32C54.4039 31.2267 54.7372 30.1333 54.7372 28.72V27.44H54.5772C53.6439 28.6933 51.9905 29.32 49.6172 29.32C47.0305 29.32 45.0972 28.52 43.8172 26.92C42.5639 25.32 41.9372 22.8133 41.9372 19.4C41.9372 15.8267 42.7905 13.12 44.4972 11.28C46.2039 9.44 48.6839 8.52 51.9372 8.52C53.6439 8.52 55.1639 8.64 56.4972 8.88C57.8572 9.12 58.9639 9.4 59.8172 9.72V29ZM51.0172 25.16C52.0305 25.16 52.8039 24.9333 53.3372 24.48C53.8972 24.0267 54.3239 23.3467 54.6172 22.44V13.44C53.7905 13.0933 52.7639 12.92 51.5372 12.92C50.2039 12.92 49.1639 13.4267 48.4172 14.44C47.6705 15.4267 47.2972 17.0133 47.2972 19.2C47.2972 21.1467 47.6172 22.6267 48.2572 23.64C48.8972 24.6533 49.8172 25.16 51.0172 25.16ZM69.7025 22.28C69.7025 23.2133 69.8225 23.8933 70.0625 24.32C70.3025 24.7467 70.6892 24.96 71.2225 24.96C71.5425 24.96 71.8492 24.9333 72.1425 24.88C72.4625 24.8267 72.8492 24.7067 73.3025 24.52L73.8625 28.6C73.4358 28.8133 72.7825 29.0267 71.9025 29.24C71.0225 29.4533 70.1158 29.56 69.1825 29.56C67.6625 29.56 66.5025 29.2133 65.7025 28.52C64.9025 27.8 64.5025 26.6267 64.5025 25V0.999998H69.7025V22.28Z" fill="#112639"/>
<path d="M76.2203 1.28C76.8336 1.17333 77.487 1.08 78.1803 0.999998C78.9003 0.893331 79.607 0.813331 80.3003 0.759999C81.0203 0.706666 81.7136 0.666666 82.3803 0.639998C83.047 0.613332 83.6603 0.599998 84.2203 0.599998C85.527 0.599998 86.807 0.719999 88.0603 0.959999C89.3403 1.2 90.4736 1.61333 91.4603 2.2C92.4736 2.78667 93.2736 3.6 93.8603 4.64C94.4736 5.65333 94.7803 6.93333 94.7803 8.48C94.7803 10.7733 94.247 12.64 93.1803 14.08C92.1136 15.52 90.687 16.52 88.9003 17.08L90.8603 18.32L97.2603 29H90.9403L84.5803 18.04L81.7003 17.52V29H76.2203V1.28ZM84.6203 5.48C84.0603 5.48 83.5003 5.49333 82.9403 5.52C82.407 5.54667 81.9936 5.6 81.7003 5.68V13.8H84.0203C85.5403 13.8 86.7536 13.4533 87.6603 12.76C88.567 12.0667 89.0203 10.92 89.0203 9.32C89.0203 8.12 88.647 7.18667 87.9003 6.52C87.1536 5.82667 86.0603 5.48 84.6203 5.48ZM105.163 9V20.36C105.163 21.9867 105.349 23.16 105.723 23.88C106.123 24.6 106.883 24.96 108.003 24.96C108.989 24.96 109.803 24.6667 110.443 24.08C111.109 23.4933 111.603 22.7733 111.923 21.92V9H117.123V22.92C117.123 24.0133 117.176 25.0933 117.283 26.16C117.389 27.2 117.549 28.1467 117.763 29H113.843L112.923 26.04H112.763C112.149 27.0533 111.296 27.8933 110.203 28.56C109.109 29.2267 107.816 29.56 106.323 29.56C105.309 29.56 104.403 29.4267 103.603 29.16C102.803 28.8933 102.136 28.4533 101.603 27.84C101.069 27.2267 100.656 26.4 100.363 25.36C100.096 24.32 99.9628 23.0133 99.9628 21.44V9H105.163ZM129.966 23.48C129.966 22.9467 129.74 22.52 129.286 22.2C128.833 21.88 128.273 21.5867 127.606 21.32C126.94 21.0533 126.206 20.7867 125.406 20.52C124.606 20.2267 123.873 19.84 123.206 19.36C122.54 18.8533 121.98 18.2267 121.526 17.48C121.073 16.7067 120.846 15.72 120.846 14.52C120.846 12.5467 121.433 11.04 122.606 10C123.78 8.96 125.473 8.44 127.686 8.44C129.206 8.44 130.58 8.6 131.806 8.92C133.033 9.24 133.993 9.6 134.686 10L133.526 13.76C132.913 13.52 132.14 13.2667 131.206 13C130.273 12.7333 129.326 12.6 128.366 12.6C126.82 12.6 126.046 13.2 126.046 14.4C126.046 14.88 126.273 15.2667 126.726 15.56C127.18 15.8533 127.74 16.1333 128.406 16.4C129.073 16.64 129.806 16.9067 130.606 17.2C131.406 17.4933 132.14 17.88 132.806 18.36C133.473 18.8133 134.033 19.4133 134.486 20.16C134.94 20.9067 135.166 21.8667 135.166 23.04C135.166 25.0667 134.513 26.6667 133.206 27.84C131.926 28.9867 129.993 29.56 127.406 29.56C125.993 29.56 124.66 29.3733 123.406 29C122.18 28.6533 121.18 28.24 120.406 27.76L121.846 23.88C122.46 24.2267 123.273 24.5733 124.286 24.92C125.3 25.24 126.34 25.4 127.406 25.4C128.18 25.4 128.793 25.2533 129.246 24.96C129.726 24.6667 129.966 24.1733 129.966 23.48ZM150.801 29V17.64C150.801 16.0133 150.575 14.84 150.121 14.12C149.668 13.4 148.841 13.04 147.641 13.04C146.761 13.04 145.948 13.3467 145.201 13.96C144.481 14.5467 144.001 15.3067 143.761 16.24V29H138.561V0.999998H143.761V11.24H143.921C144.561 10.3867 145.348 9.70667 146.281 9.2C147.215 8.69333 148.401 8.44 149.841 8.44C150.855 8.44 151.748 8.57333 152.521 8.84C153.295 9.10667 153.935 9.54667 154.441 10.16C154.975 10.7733 155.361 11.6133 155.601 12.68C155.868 13.72 156.001 15.0133 156.001 16.56V29H150.801Z" fill="#31DF01"/>
</svg>
